HIERARCHY
ROOT hip
{
  OFFSET 0 0 0
  CHANNELS 6 Xposition Yposition Zposition Zrotation Yrotation Xrotation
  JOINT abdomen
  {
    OFFSET 0 20.6881 -0.73152
    CHANNELS 3 Zrotation Xrotation Yrotation
    JOINT chest
    {
      OFFSET 0 11.7043 -0.48768
      CHANNELS 3 Zrotation Xrotation Yrotation
      JOINT neck
      {
        OFFSET 0 22.1894 -2.19456
        CHANNELS 3 Zrotation Xrotation Yrotation
        JOINT head
        {
          OFFSET -0.24384 7.07133 1.2192
          CHANNELS 3 Zrotation Xrotation Yrotation
          JOINT leftEye
          {
            OFFSET 4.14528 8.04674 8.04672
            CHANNELS 3 Zrotation Xrotation Yrotation
            End Site
            {
              OFFSET 1 0 0
            }
          }
          JOINT rightEye
          {
            OFFSET -3.6576 8.04674 8.04672
            CHANNELS 3 Zrotation Xrotation Yrotation
            End Site
            {
              OFFSET 1 0 0
            }
          }
        }
      }
      JOINT rCollar
      {
        OFFSET -2.68224 19.2634 -4.8768
        CHANNELS 3 Zrotation Xrotation Yrotation
        JOINT rShldr
        {
          OFFSET -8.77824 -1.95073 1.46304
          CHANNELS 3 Zrotation Xrotation Yrotation
          JOINT rForeArm
          {
            OFFSET -28.1742 -1.7115 0.48768
            CHANNELS 3 Zrotation Xrotation Yrotation
            JOINT rHand
            {
              OFFSET -22.5879 0.773209 7.07136
              CHANNELS 3 Zrotation Xrotation Yrotation
              JOINT rThumb1
              {
                OFFSET -1.2192 -0.487915 3.41376
                CHANNELS 3 Zrotation Xrotation Yrotation
                JOINT rThumb2
                {
                  OFFSET -3.37035 -0.52449 3.41376
                  CHANNELS 3 Zrotation Xrotation Yrotation
                  End Site
                  {
                    OFFSET -1.78271 -1.18214 1.43049
                  }
                }
              }
              JOINT rIndex1
              {
                OFFSET -7.75947 0.938293 5.60832
                CHANNELS 3 Zrotation Xrotation Yrotation
                JOINT rIndex2
                {
                  OFFSET -2.54057 -0.884171 1.56538
                  CHANNELS 3 Zrotation Xrotation Yrotation
                  End Site
                  {
                    OFFSET -1.62519 -0.234802 1.16502
                  }
                }
              }
              JOINT rMid1
              {
                OFFSET -8.24714 1.18213 3.41376
                CHANNELS 3 Zrotation Xrotation Yrotation
                JOINT rMid2
                {
                  OFFSET -3.10165 -0.590103 1.0647
                  CHANNELS 3 Zrotation Xrotation Yrotation
                  End Site
                  {
                    OFFSET -2.48547 -0.328903 0.83742
                  }
                }
              }
              JOINT rRing1
              {
                OFFSET -8.82822 0.546677 1.51678
                CHANNELS 3 Zrotation Xrotation Yrotation
                JOINT rRing2
                {
                  OFFSET -2.60934 -0.819778 -0.0198488
                  CHANNELS 3 Zrotation Xrotation Yrotation
                  End Site
                  {
                    OFFSET -2.33842 -0.294052 0.168128
                  }
                }
              }
              JOINT rPinky1
              {
                OFFSET -8.27202 -0.0477905 -0.4584
                CHANNELS 3 Zrotation Xrotation Yrotation
                JOINT rPinky2
                {
                  OFFSET -1.82734 -0.647385 -0.700984
                  CHANNELS 3 Zrotation Xrotation Yrotation
                  End Site
                  {
                    OFFSET -1.69225 -0.51767 -0.607171
                  }
                }
              }
            }
          }
        }
      }
      JOINT lCollar
      {
        OFFSET 2.68224 19.2634 -4.8768
        CHANNELS 3 Zrotation Xrotation Yrotation
        JOINT lShldr
        {
          OFFSET 8.77824 -1.95073 1.46304
          CHANNELS 3 Zrotation Xrotation Yrotation
          JOINT lForeArm
          {
            OFFSET 28.1742 -1.7115 0.48768
            CHANNELS 3 Zrotation Xrotation Yrotation
            JOINT lHand
            {
              OFFSET 22.5879 0.773209 7.07136
              CHANNELS 3 Zrotation Xrotation Yrotation
              JOINT lThumb1
              {
                OFFSET 1.2192 -0.487915 3.41376
                CHANNELS 3 Zrotation Xrotation Yrotation
                JOINT lThumb2
                {
                  OFFSET 3.37035 -0.52449 3.41376
                  CHANNELS 3 Zrotation Xrotation Yrotation
                  End Site
                  {
                    OFFSET 1.78271 -1.18214 1.43049
                  }
                }
              }
              JOINT lIndex1
              {
                OFFSET 7.75947 0.938293 5.60832
                CHANNELS 3 Zrotation Xrotation Yrotation
                JOINT lIndex2
                {
                  OFFSET 2.54057 -0.884171 1.56538
                  CHANNELS 3 Zrotation Xrotation Yrotation
                  End Site
                  {
                    OFFSET 1.62519 -0.234802 1.16502
                  }
                }
              }
              JOINT lMid1
              {
                OFFSET 8.24714 1.18213 3.41376
                CHANNELS 3 Zrotation Xrotation Yrotation
                JOINT lMid2
                {
                  OFFSET 3.10165 -0.590103 1.0647
                  CHANNELS 3 Zrotation Xrotation Yrotation
                  End Site
                  {
                    OFFSET 2.48547 -0.328903 0.83742
                  }
                }
              }
              JOINT lRing1
              {
                OFFSET 8.82822 0.546677 1.51678
                CHANNELS 3 Zrotation Xrotation Yrotation
                JOINT lRing2
                {
                  OFFSET 2.60934 -0.819778 -0.0198488
                  CHANNELS 3 Zrotation Xrotation Yrotation
                  End Site
                  {
                    OFFSET 2.33842 -0.294052 0.168128
                  }
                }
              }
              JOINT lPinky1
              {
                OFFSET 8.27202 -0.0477905 -0.4584
                CHANNELS 3 Zrotation Xrotation Yrotation
                JOINT lPinky2
                {
                  OFFSET 1.82734 -0.647385 -0.700984
                  CHANNELS 3 Zrotation Xrotation Yrotation
                  End Site
                  {
                    OFFSET 1.69225 -0.51767 -0.607171
                  }
                }
              }
            }
          }
        }
      }
    }
  }
  JOINT rButtock
  {
    OFFSET -8.77824 4.35084 1.2192
    CHANNELS 3 Zrotation Xrotation Yrotation
    JOINT rThigh
    {
      OFFSET 0 -1.70687 -2.19456
      CHANNELS 3 Zrotation Xrotation Yrotation
      JOINT rShin
      {
        OFFSET 0 -36.8199 0.73152
        CHANNELS 3 Zrotation Xrotation Yrotation
        JOINT rFoot
        {
          OFFSET 0.73152 -45.1104 -5.12064
          CHANNELS 3 Zrotation Xrotation Yrotation
          End Site
          {
            OFFSET -1.1221 -3.69964 12.103
          }
        }
      }
    }
  }
  JOINT lButtock
  {
    OFFSET 8.77824 4.35084 1.2192
    CHANNELS 3 Zrotation Xrotation Yrotation
    JOINT lThigh
    {
      OFFSET 0 -1.70687 -2.19456
      CHANNELS 3 Zrotation Xrotation Yrotation
      JOINT lShin
      {
        OFFSET 0 -36.8199 0.73152
        CHANNELS 3 Zrotation Xrotation Yrotation
        JOINT lFoot
        {
          OFFSET -0.73152 -45.1104 -5.12064
          CHANNELS 3 Zrotation Xrotation Yrotation
          End Site
          {
            OFFSET 1.1221 -3.69964 12.103
          }
        }
      }
    }
  }
}
MOTION
Frames:	7
Frame Time:	0.00833333
3.193054e-05 0.45917895 6.016344e-05 -16.529999 -25.665298 16.5232 10.122499 4.8289394 4.6444497 1.7373399 -8.093029 1.17076 -0.22299698 12.185499 6.1913795 6.1819196 -23.5763 13.574499 -0.0 0.0 0.0 -0.0 0.0 0.0 3.8588897e-13 3.9687099e-13 -1.9937199e-13 107.758995 46.778698 -57.203396 -27.454199 -42.661797 88.83899 -7.7609897 -59.177998 -13.624299 -5.6011096e-10 7.2707296e-10 -1.5511899e-10 -9.565378e-10 1.1837898e-09 -3.0361397e-10 -5.60103e-10 7.2707396e-10 -1.55138e-10 7.73091 5.47488 0.41731396 -5.60114e-10 7.2706796e-10 -1.55124e-10 2.90554 0.96518296 0.102901995 -5.60105e-10 7.2707196e-10 -1.5512598e-10 10.278599 0.7318009 0.0259123 -5.60113e-10 7.2707296e-10 -1.5511799e-10 2.22167 -0.733487 -0.20891999 3.8575298e-13 3.9687597e-13 -1.9975998e-13 -59.876995 -22.0006 -77.191795 7.46755 -2.7390897 -13.131599 11.914899 65.8842 -18.297499 -1.11646e-09 -1.00454e-08 1.7542098e-09 -1.8155099e-09 -1.78967e-08 3.0818599e-09 -1.11646e-09 -1.00454e-08 1.7542199e-09 -7.73091 5.47488 -0.41731396 -1.11646e-09 -1.00454e-08 1.7542098e-09 -2.90554 0.96518296 -0.102901995 -1.1164699e-09 -1.00454e-08 1.7542098e-09 -10.278599 0.7318009 -0.0259123 -1.1164499e-09 -1.00454e-08 1.7541999e-09 -2.22167 -0.733487 0.20891999 -2.0321698e-16 0.0 -3.8825097e-19 -13.900199 12.271799 -4.0956397 0.12682298 29.820898 2.70674 -8.151589 -16.251698 -32.8543 2.0321698e-16 0.0 3.8825097e-19 98.25309 -55.048096 87.858696 8.72822 83.12969 -8.1172695 -1.8966899 -1.8426698 -11.082399
1.3320096e-05 0.45919698 3.0174851e-05 -16.5208 -25.704298 16.5423 10.131999 4.7963395 4.6829596 1.7293499 -8.052179 1.17932 -0.24164397 12.217899 6.1900997 6.1892996 -23.736198 13.583799 -0.0 0.0 0.0 -0.0 0.0 0.0 8.949649e-14 -5.7329694e-13 -1.7160099e-13 107.73399 46.758995 -57.168995 -27.456697 -42.6533 88.823395 -7.76649 -59.189598 -13.630699 -2.3077598e-09 3.2962297e-09 -4.2966095e-10 -3.9452e-09 5.43743e-09 -8.6443697e-10 -2.3077398e-09 3.2962297e-09 -4.2967999e-10 7.73091 5.47488 0.41731396 -2.3077598e-09 3.2962197e-09 -4.29664e-10 2.90554 0.96518296 0.102901995 -2.30775e-09 3.2962297e-09 -4.2966697e-10 10.278599 0.7318009 0.0259123 -2.3077598e-09 3.2962297e-09 -4.2965798e-10 2.22167 -0.733487 -0.20891999 8.9415597e-14 -5.73293e-13 -1.7184899e-13 -59.841797 -21.9969 -77.211395 7.4677896 -2.7395499 -13.132899 11.929699 65.9024 -18.313599 -5.07728e-09 3.0701596e-08 -2.2740598e-09 -8.817399e-09 5.1077397e-08 -3.6205698e-09 -5.0772697e-09 3.0701596e-08 -2.2740598e-09 -7.73091 5.47488 -0.41731396 -5.07728e-09 3.0701596e-08 -2.2740598e-09 -2.90554 0.96518296 -0.102901995 -5.07728e-09 3.0701596e-08 -2.2740698e-09 -10.278599 0.7318009 -0.0259123 -5.0772697e-09 3.0701596e-08 -2.27408e-09 -2.22167 -0.733487 0.20891999 -2.0321698e-16 0.0 -3.8825097e-19 -13.941799 12.248699 -4.0814395 0.126777 29.820099 2.7064698 -8.15416 -16.264198 -32.8415 2.0321698e-16 0.0 3.8825097e-19 98.25009 -55.109695 87.82259 8.800809 83.16629 -8.200949 -1.87701 -1.8489997 -10.912999
4.3809996e-05 0.45923898 -1.9930303e-05 -16.545698 -25.742298 16.596199 10.168899 4.74572 4.7022896 1.7045599 -7.994109 1.1809899 -0.241785 12.238599 6.1877193 6.2056193 -23.897099 13.594099 -0.0 0.0 0.0 -0.0 0.0 0.0 -4.44236e-13 -9.48601e-13 5.7341295e-13 107.702995 46.8035 -57.108498 -27.460999 -42.638798 88.79559 -7.79033 -59.239895 -13.658399 -3.7849794e-09 6.7515096e-09 2.0157098e-10 -6.5153296e-09 1.1342099e-08 1.6776498e-10 -3.7849595e-09 6.751499e-09 2.0155198e-10 7.73091 5.47488 0.41731396 -3.78497e-09 6.751499e-09 2.0156898e-10 2.90554 0.96518296 0.102901995 -3.78497e-09 6.751499e-09 2.0157e-10 10.278599 0.7318009 0.0259123 -3.7849794e-09 6.751499e-09 2.0157599e-10 2.22167 -0.733487 -0.20891999 -4.4435096e-13 -9.48601e-13 5.7320793e-13 -59.819 -22.035698 -77.2475 7.4676895 -2.7404099 -13.132199 11.919299 65.8896 -18.3023 -1.3202499e-09 5.7479692e-08 -7.3255992e-09 -2.6592797e-09 9.918659e-08 -1.2503999e-08 -1.3202499e-09 5.7479692e-08 -7.3255992e-09 -7.73091 5.47488 -0.41731396 -1.3202499e-09 5.7479692e-08 -7.3255992e-09 -2.90554 0.96518296 -0.102901995 -1.3202599e-09 5.7479692e-08 -7.32561e-09 -10.278599 0.7318009 -0.0259123 -1.3202499e-09 5.7479692e-08 -7.3256192e-09 -2.22167 -0.733487 0.20891999 -2.0321698e-16 0.0 -3.8825097e-19 -13.958399 12.197799 -4.0812397 0.12658398 29.830399 2.706 -8.13822 -16.2572 -32.8083 2.0321698e-16 0.0 3.8825097e-19 98.35359 -55.161995 87.87429 8.91972 83.2282 -8.33241 -1.8389099 -1.7922599 -10.709399
0.00028484064 0.459331 -3.9860606e-05 -16.500998 -25.796497 16.5943 10.1256 4.74224 4.7094693 1.6953499 -7.9515796 1.17981 -0.23492098 12.2561 6.1876197 6.2146697 -24.072298 13.609299 -0.0 0.0 0.0 -0.0 0.0 0.0 -8.463269e-13 -1.00903e-12 1.2182499e-12 107.65699 46.860397 -57.025795 -27.465797 -42.6222 88.76399 -7.8073897 -59.275795 -13.678299 -4.5779895e-09 9.07405e-09 8.557409e-10 -7.91106e-09 1.5353198e-08 1.2719299e-09 -4.5779696e-09 9.074039e-09 8.5572494e-10 7.73091 5.47488 0.41731396 -4.5779895e-09 9.074039e-09 8.557409e-10 2.90554 0.96518296 0.102901995 -4.57798e-09 9.074039e-09 8.557439e-10 10.278599 0.7318009 0.0259123 -4.5779895e-09 9.074039e-09 8.5574686e-10 2.22167 -0.733487 -0.20891999 -8.464789e-13 -1.00903e-12 1.2180499e-12 -59.779293 -22.087797 -77.28579 7.47215 -2.7432199 -13.139499 11.877299 65.83759 -18.256298 3.2649499e-09 6.988349e-08 -1.07439e-08 5.0059494e-09 1.2272e-07 -1.8627498e-08 3.2649599e-09 6.988349e-08 -1.07439e-08 -7.73091 5.47488 -0.41731396 3.2649599e-09 6.988349e-08 -1.07439e-08 -2.90554 0.96518296 -0.102901995 3.2649499e-09 6.988349e-08 -1.07439e-08 -10.278599 0.7318009 -0.0259123 3.2649599e-09 6.988349e-08 -1.07439e-08 -2.22167 -0.733487 0.20891999 -2.0321698e-16 0.0 -3.8825097e-19 -14.034699 12.122099 -4.0736394 0.12578 29.902395 2.7062297 -8.134349 -16.2604 -32.7777 2.0321698e-16 0.0 3.8825097e-19 98.36829 -55.25 87.8999 9.02953 83.284096 -8.457069 -1.7785699 -1.6720198 -10.427599
0.00067934016 0.45948797 -0.0003296882 -16.3213 -25.875797 16.476599 9.876609 4.8704896 4.7024393 1.7408398 -7.966369 1.1777999 -0.22954299 12.270299 6.1924195 6.2065096 -24.265398 13.633699 -0.0 0.0 0.0 -0.0 0.0 0.0 -5.9946996e-13 -7.0001996e-13 7.5448095e-13 107.58699 46.881897 -56.917595 -27.4699 -42.6085 88.73779 -7.7882695 -59.2356 -13.655999 -3.4028498e-09 6.7823995e-09 6.619709e-10 -5.8817995e-09 1.1473799e-08 9.868079e-10 -3.4028398e-09 6.78239e-09 6.6196193e-10 7.73091 5.47488 0.41731396 -3.4028498e-09 6.7823995e-09 6.61969e-10 2.90554 0.96518296 0.102901995 -3.4028398e-09 6.78239e-09 6.619709e-10 10.278599 0.7318009 0.0259123 -3.4028598e-09 6.7823995e-09 6.619759e-10 2.22167 -0.733487 -0.20891999 -5.9955795e-13 -7.0002093e-13 7.5425994e-13 -59.6966 -22.1304 -77.31819 7.4856896 -2.7490199 -13.1638 11.7833 65.7203 -18.153198 2.2832098e-09 5.1573096e-08 -7.90379e-09 3.47881e-09 9.054649e-08 -1.3695999e-08 2.2832198e-09 5.1573096e-08 -7.90379e-09 -7.73091 5.47488 -0.41731396 2.2832198e-09 5.1573096e-08 -7.903799e-09 -2.90554 0.96518296 -0.102901995 2.2832098e-09 5.1573096e-08 -7.90379e-09 -10.278599 0.7318009 -0.0259123 2.2832198e-09 5.1573096e-08 -7.903799e-09 -2.22167 -0.733487 0.20891999 -2.0321698e-16 0.0 -3.8825097e-19 -14.264499 12.0438 -4.04448 0.12394399 30.071098 2.70751 -8.16535 -16.2923 -32.7698 2.0321698e-16 0.0 3.8825097e-19 98.08949 -55.423397 87.775696 9.078689 83.307396 -8.524809 -1.6924999 -1.4721498 -10.035299
0.0011536904 0.459786 -0.0008199364 -16.014399 -25.981499 16.2639 9.502869 5.0597496 4.68544 1.8087697 -8.000879 1.17489 -0.22346598 12.287699 6.2052894 6.1825395 -24.476498 13.672199 -0.0 0.0 0.0 -0.0 0.0 0.0 -1.8920198e-13 -2.68759e-13 2.3227996e-13 107.50499 46.904495 -56.790695 -27.474798 -42.592094 88.70639 -7.7531095 -59.161396 -13.615099 -2.2482298e-09 4.28816e-09 3.1235597e-10 -3.88054e-09 7.2306494e-09 4.30295e-10 -2.2482198e-09 4.28815e-09 3.1235298e-10 7.73091 5.47488 0.41731396 -2.2482298e-09 4.28816e-09 3.1235298e-10 2.90554 0.96518296 0.102901995 -2.2482098e-09 4.28815e-09 3.1235298e-10 10.278599 0.7318009 0.0259123 -2.2482298e-09 4.28816e-09 3.12362e-10 2.22167 -0.733487 -0.20891999 -1.8924699e-13 -2.6875496e-13 2.3203097e-13 -59.581894 -22.179699 -77.330795 7.5083694 -2.7592597 -13.204799 11.659 65.5634 -18.016798 6.95164e-10 2.7684997e-08 -4.0797e-09 9.6824e-10 4.8414996e-08 -7.0391795e-09 6.951649e-10 2.7684997e-08 -4.07969e-09 -7.73091 5.47488 -0.41731396 6.95164e-10 2.7685099e-08 -4.0797e-09 -2.90554 0.96518296 -0.102901995 6.95164e-10 2.7684997e-08 -4.0797e-09 -10.278599 0.7318009 -0.0259123 6.951709e-10 2.7684997e-08 -4.0797095e-09 -2.22167 -0.733487 0.20891999 -2.0321698e-16 0.0 -3.8825097e-19 -14.587898 11.902599 -3.9897199 0.120957986 30.363798 2.71057 -8.228839 -16.3561 -32.7756 2.0321698e-16 0.0 3.8825097e-19 97.61959 -55.655598 87.58119 9.0616 83.29499 -8.528779 -1.5767299 -1.2004999 -9.49682
0.0017411702 0.460376 -0.0016098842 -15.627899 -26.111698 16.019 9.046949 5.2600594 4.64746 1.8827 -8.03004 1.16925 -0.21152298 12.309099 6.2360597 6.12697 -24.696398 13.738099 -0.0 0.0 0.0 -0.0 0.0 0.0 3.37872e-14 6.39532e-14 7.1456193e-13 107.41899 46.950897 -56.654697 -27.481398 -42.569695 88.664 -7.7048893 -59.059 -13.558899 -3.5552095e-09 6.5121597e-09 3.28741e-10 -6.12999e-09 1.0977799e-08 4.0401898e-10 -3.5551995e-09 6.5121495e-09 3.28736e-10 7.73091 5.47488 0.41731396 -3.5552095e-09 6.5121495e-09 3.28741e-10 2.90554 0.96518296 0.102901995 -3.5551995e-09 6.5121495e-09 3.2874398e-10 10.278599 0.7318009 0.0259123 -3.55522e-09 6.5121495e-09 3.2875896e-10 2.22167 -0.733487 -0.20891999 3.3602898e-14 6.396369e-14 7.14299e-13 -59.460194 -22.261398 -77.3065 7.5411396 -2.7756798 -13.264299 11.532499 65.4012 -17.8777 2.6427298e-09 2.3965999e-08 -4.3273594e-09 4.2949098e-09 4.27545e-08 -7.56273e-09 2.6427298e-09 2.3965999e-08 -4.32735e-09 -7.73091 5.47488 -0.41731396 2.6427298e-09 2.3965999e-08 -4.32735e-09 -2.90554 0.96518296 -0.102901995 2.6427298e-09 2.3965999e-08 -4.32735e-09 -10.278599 0.7318009 -0.0259123 2.6427298e-09 2.3965999e-08 -4.3273594e-09 -2.22167 -0.733487 0.20891999 -2.0321698e-16 0.0 -3.8825097e-19 -14.965099 11.663999 -3.9020298 0.11668398 30.7821 2.71523 -8.33812 -16.4533 -32.8216 2.0321698e-16 0.0 3.8825097e-19 96.99809 -55.939995 87.38639 8.967999 83.24389 -8.458789 -1.4151499 -0.853045 -8.71592
